<svg width="22" height="19" viewBox="0 0 22 19" fill="none" xmlns="http://www.w3.org/2000/svg">
<path d="M18.6245 18.9531L10.1479 18.9434C9.76383 18.9434 9.39925 18.901 9.0542 18.8164C8.71566 18.7383 8.39014 18.6113 8.07764 18.4355C7.77165 18.2598 7.48519 18.0319 7.21826 17.752L1.45654 11.8047C1.13753 11.4727 0.903158 11.1569 0.753418 10.8574C0.603678 10.5514 0.528809 10.2487 0.528809 9.94922C0.528809 9.74089 0.561361 9.53906 0.626465 9.34375C0.691569 9.14193 0.79248 8.93685 0.929199 8.72852C1.06592 8.52018 1.2417 8.30859 1.45654 8.09375L7.2085 2.11719C7.47542 1.83724 7.76188 1.61263 8.06787 1.44336C8.38037 1.27409 8.70589 1.15365 9.04443 1.08203C9.38949 1.01042 9.75407 0.974609 10.1382 0.974609H18.6245C19.6466 0.974609 20.4116 1.22852 20.9194 1.73633C21.4338 2.23763 21.6909 2.99284 21.6909 4.00195V15.9258C21.6909 16.9349 21.4338 17.6901 20.9194 18.1914C20.4116 18.6992 19.6466 18.9531 18.6245 18.9531ZM18.605 17.3809C19.0933 17.3809 19.4676 17.2539 19.728 17C19.9884 16.7396 20.1187 16.3555 20.1187 15.8477V4.08008C20.1187 3.57227 19.9884 3.19141 19.728 2.9375C19.4676 2.67708 19.0933 2.54688 18.605 2.54688H10.1089C9.7443 2.54688 9.42855 2.58919 9.16162 2.67383C8.9012 2.75846 8.64404 2.93099 8.39014 3.19141L2.67725 9.11914C2.39079 9.43164 2.24756 9.70833 2.24756 9.94922C2.24756 10.0729 2.27686 10.1999 2.33545 10.3301C2.40055 10.4538 2.51449 10.6003 2.67725 10.7695L8.3999 16.6777C8.65381 16.9382 8.91097 17.1204 9.17139 17.2246C9.4318 17.3288 9.74756 17.3809 10.1187 17.3809H18.605ZM9.57178 14.0898C9.35693 14.0898 9.17139 14.0117 9.01514 13.8555C8.8654 13.6992 8.79053 13.5137 8.79053 13.2988C8.79053 13.084 8.86865 12.9017 9.0249 12.752L11.7983 9.96875L9.0249 7.18555C8.86865 7.03581 8.79053 6.85352 8.79053 6.63867C8.79053 6.42383 8.8654 6.24154 9.01514 6.0918C9.17139 5.94206 9.35693 5.86719 9.57178 5.86719C9.79313 5.86719 9.97542 5.94531 10.1187 6.10156L12.9019 8.875L15.7144 6.0918C15.8706 5.92904 16.0496 5.84766 16.2515 5.84766C16.4663 5.84766 16.6486 5.92578 16.7983 6.08203C16.9546 6.23177 17.0327 6.41406 17.0327 6.62891C17.0327 6.83724 16.9546 7.01953 16.7983 7.17578L14.0151 9.96875L16.7886 12.7422C16.9448 12.8984 17.0229 13.084 17.0229 13.2988C17.0229 13.5137 16.9448 13.6992 16.7886 13.8555C16.6388 14.0117 16.4565 14.0898 16.2417 14.0898C16.0269 14.0898 15.8413 14.0085 15.6851 13.8457L12.9019 11.0723L10.1382 13.8457C9.98844 14.0085 9.79964 14.0898 9.57178 14.0898Z" fill="white"/>
</svg>
