<svg width="93" height="43" viewBox="0 0 93 43" fill="none" xmlns="http://www.w3.org/2000/svg">
<g filter="url(#filter0_d_131_7412)">
<rect x="0.725098" width="91.2977" height="42" rx="4.6" fill="url(#paint0_linear_131_7412)" shape-rendering="crispEdges"/>
<path d="M28.5563 27V15.7266H35.5407V16.9922H29.9626V20.6094H35.2517V21.8594H29.9626V25.7344H35.5407V27H28.5563ZM37.5157 27V18.5781H38.8751V19.8438H39.0001C39.2136 19.3958 39.5209 19.0495 39.922 18.8047C40.323 18.5547 40.8334 18.4297 41.4532 18.4297C42.4011 18.4297 43.1277 18.7005 43.6329 19.2422C44.1433 19.7786 44.3985 20.5469 44.3985 21.5469V27H43.0392V21.875C43.0392 21.1146 42.8777 20.5521 42.5548 20.1875C42.2371 19.8177 41.7423 19.6328 41.0704 19.6328C40.6225 19.6328 40.2345 19.7292 39.9063 19.9219C39.5782 20.1146 39.323 20.388 39.1407 20.7422C38.9636 21.0964 38.8751 21.5208 38.8751 22.0156V27H37.5157ZM49.4517 27.0625C48.5871 27.0625 47.9595 26.888 47.5688 26.5391C47.1834 26.1901 46.9907 25.6146 46.9907 24.8125V19.7031H45.6626V18.5781H46.9907V16.3984H48.397V18.5781H50.2407V19.7031H48.397V24.4688C48.397 24.9635 48.4907 25.3203 48.6782 25.5391C48.8657 25.7526 49.1782 25.8594 49.6157 25.8594C49.7355 25.8594 49.8371 25.8568 49.9204 25.8516C50.009 25.8464 50.1157 25.8385 50.2407 25.8281V26.9844C50.1105 27.0052 49.9803 27.0234 49.8501 27.0391C49.7199 27.0547 49.5871 27.0625 49.4517 27.0625ZM55.2001 27.1484C54.398 27.1484 53.7079 26.9714 53.1298 26.6172C52.5569 26.263 52.1142 25.763 51.8017 25.1172C51.4944 24.4661 51.3407 23.7005 51.3407 22.8203V22.8125C51.3407 21.9427 51.4944 21.1797 51.8017 20.5234C52.1142 19.8672 52.5543 19.3542 53.122 18.9844C53.6897 18.6146 54.3537 18.4297 55.1142 18.4297C55.8798 18.4297 56.536 18.6068 57.0829 18.9609C57.635 19.3151 58.0569 19.8099 58.3485 20.4453C58.6454 21.0755 58.7938 21.8099 58.7938 22.6484V23.1797H52.0438V22.0938H58.0985L57.4267 23.0859V22.5469C57.4267 21.8854 57.3277 21.3411 57.1298 20.9141C56.9319 20.487 56.6584 20.1693 56.3095 19.9609C55.9605 19.7474 55.5595 19.6406 55.1063 19.6406C54.6532 19.6406 54.247 19.7526 53.8876 19.9766C53.5334 20.1953 53.2522 20.5208 53.0438 20.9531C52.8355 21.3854 52.7313 21.9167 52.7313 22.5469V23.0859C52.7313 23.6849 52.8329 24.1979 53.036 24.625C53.2392 25.0469 53.5282 25.3724 53.9032 25.6016C54.2782 25.8255 54.7209 25.9375 55.2313 25.9375C55.6116 25.9375 55.9423 25.8854 56.2235 25.7812C56.5048 25.6771 56.7366 25.5443 56.9188 25.3828C57.1011 25.2214 57.2287 25.0573 57.3017 24.8906L57.3329 24.8203H58.6923L58.6767 24.8828C58.6037 25.1693 58.4735 25.4479 58.286 25.7188C58.1037 25.9844 57.8668 26.2266 57.5751 26.4453C57.2834 26.6589 56.9371 26.8307 56.536 26.9609C56.1402 27.0859 55.6949 27.1484 55.2001 27.1484ZM60.5032 27V18.5781H61.8626V19.8281H61.9876C62.1491 19.3854 62.4225 19.0417 62.8079 18.7969C63.1933 18.5521 63.6699 18.4297 64.2376 18.4297C64.3678 18.4297 64.4954 18.4375 64.6204 18.4531C64.7506 18.4635 64.8496 18.474 64.9173 18.4844V19.8047C64.7767 19.7786 64.6386 19.7604 64.5032 19.75C64.373 19.7344 64.2324 19.7266 64.0813 19.7266C63.6491 19.7266 63.2662 19.8125 62.9329 19.9844C62.5996 20.1562 62.3366 20.3958 62.1438 20.7031C61.9563 21.0104 61.8626 21.3698 61.8626 21.7812V27H60.5032Z" fill="white"/>
</g>
<defs>
<filter id="filter0_d_131_7412" x="0.725098" y="0" width="91.2979" height="43" filterUnits="userSpaceOnUse" color-interpolation-filters="sRGB">
<feFlood flood-opacity="0" result="BackgroundImageFix"/>
<feColorMatrix in="SourceAlpha" type="matrix" values="0 0 0 0 0 0 0 0 0 0 0 0 0 0 0 0 0 0 127 0" result="hardAlpha"/>
<feOffset dy="1"/>
<feComposite in2="hardAlpha" operator="out"/>
<feColorMatrix type="matrix" values="0 0 0 0 0 0 0 0 0 0 0 0 0 0 0 0 0 0 0.4 0"/>
<feBlend mode="normal" in2="BackgroundImageFix" result="effect1_dropShadow_131_7412"/>
<feBlend mode="normal" in="SourceGraphic" in2="effect1_dropShadow_131_7412" result="shape"/>
</filter>
<linearGradient id="paint0_linear_131_7412" x1="6.84088" y1="31.5" x2="47.7802" y2="-19.8795" gradientUnits="userSpaceOnUse">
<stop stop-color="#B678FC"/>
<stop offset="1" stop-color="#62C8FF"/>
</linearGradient>
</defs>
</svg>