<svg width="20" height="20" viewBox="0 0 20 20" fill="none" xmlns="http://www.w3.org/2000/svg">
<path d="M9.99998 20C7.34892 20 4.80497 18.9466 2.93012 17.0715C1.05525 15.1963 0.00219727 12.6518 0.00219727 10.0002C0.00219727 7.34866 1.05535 4.80421 2.93012 2.929C4.80499 1.05376 7.34892 0.00050354 9.99998 0.00050354C12.6511 0.00050354 15.195 1.05387 17.0698 2.929C18.9447 4.80423 19.9978 7.34866 19.9978 10.0002C19.9947 12.6518 18.9406 15.1932 17.0667 17.0684C15.1919 18.9426 12.6511 19.9969 9.99998 20ZM9.99998 1.29421C7.69152 1.29421 5.47795 2.21111 3.84581 3.84474C2.2125 5.47735 1.29578 7.69117 1.29578 10.0001C1.29578 12.3091 2.2125 14.523 3.84581 16.1555C5.47811 17.7891 7.69149 18.706 9.99998 18.706C12.3085 18.706 14.522 17.7891 16.1542 16.1555C17.7875 14.5229 18.7042 12.3091 18.7042 10.0001C18.7012 7.6922 17.7834 5.47927 16.1511 3.84784C14.5198 2.21522 12.3074 1.29724 9.99998 1.29421Z" fill="white"/>
<path d="M10.0002 20C7.31991 20 5.86035 14.8474 5.86035 10C5.86035 5.15256 7.30667 0 10.0002 0C12.6938 0 14.1401 5.15256 14.1401 10C14.1401 14.8474 12.6806 20 10.0002 20ZM10.0002 1.29422C8.81769 1.29422 7.15406 4.60702 7.15406 10.0003C7.15406 15.3935 8.80455 18.7063 10.0002 18.7063C11.1959 18.7063 12.8464 15.3935 12.8464 10.0003C12.8464 4.60702 11.1828 1.29422 10.0002 1.29422Z" fill="white"/>
<path d="M19.3531 10.647H0.646855C0.289066 10.647 0 10.3569 0 10C0 9.64318 0.289066 9.35305 0.646855 9.35305H19.3542H19.3531C19.7109 9.35305 20 9.64318 20 10C20 10.3569 19.7109 10.647 19.3531 10.647Z" fill="white"/>
</svg>
